REM DIRINDEX 1\4,1\2\5,1\2\6,1\3\7,1\3\8
REM DIRNAME folder01,folder02,folder03,folder04,folder05,folder06,folder07,folder08
TITLE ""
FILE "088_Day44_Check3_Sentences.mp3" MP3
  TRACK 01 AUDIO
    TITLE "0:"
    INDEX 01 00:00:00
  TRACK 02 AUDIO
    TITLE "4:cjc124_2874"
    INDEX 01 00:00:25
  TRACK 03 AUDIO
    TITLE "0:"
    INDEX 01 00:02:00
  TRACK 04 AUDIO
    TITLE "7:cjc124_2875"
    INDEX 01 00:02:43
  TRACK 05 AUDIO
    TITLE "0:"
    INDEX 01 00:05:38
  TRACK 06 AUDIO
    TITLE "8:cjc124_2876"
    INDEX 01 00:05:52
  TRACK 07 AUDIO
    TITLE "0:"
    INDEX 01 00:09:08
  TRACK 08 AUDIO
    TITLE "7:cjc124_2877"
    INDEX 01 00:09:47
  TRACK 09 AUDIO
    TITLE "0:"
    INDEX 01 00:13:02
  TRACK 10 AUDIO
    TITLE "8:cjc124_2878"
    INDEX 01 00:13:16
  TRACK 11 AUDIO
    TITLE "0:"
    INDEX 01 00:16:24
  TRACK 12 AUDIO
    TITLE "7:cjc124_2879"
    INDEX 01 00:16:65
  TRACK 13 AUDIO
    TITLE "0:"
    INDEX 01 00:19:65
  TRACK 14 AUDIO
    TITLE "8:cjc124_2880"
    INDEX 01 00:20:04
  TRACK 15 AUDIO
    TITLE "0:"
    INDEX 01 00:22:68
  TRACK 16 AUDIO
    TITLE "7:cjc124_2881"
    INDEX 01 00:23:30
  TRACK 17 AUDIO
    TITLE "0:"
    INDEX 01 00:26:60
  TRACK 18 AUDIO
    TITLE "8:cjc124_2882"
    INDEX 01 00:27:00
  TRACK 19 AUDIO
    TITLE "0:"
    INDEX 01 00:30:20
  TRACK 20 AUDIO
    TITLE "7:cjc124_2883"
    INDEX 01 00:30:57
  TRACK 21 AUDIO
    TITLE "0:"
    INDEX 01 00:33:50
  TRACK 22 AUDIO
    TITLE "8:cjc124_2884"
    INDEX 01 00:33:66
  TRACK 23 AUDIO
    TITLE "0:"
    INDEX 01 00:36:21
  TRACK 24 AUDIO
    TITLE "7:cjc124_2885"
    INDEX 01 00:36:58
  TRACK 25 AUDIO
    TITLE "0:"
    INDEX 01 00:40:05
  TRACK 26 AUDIO
    TITLE "8:cjc124_2886"
    INDEX 01 00:40:19
  TRACK 27 AUDIO
    TITLE "0:"
    INDEX 01 00:42:53
  TRACK 28 AUDIO
    TITLE "7:cjc124_2887"
    INDEX 01 00:43:15
  TRACK 29 AUDIO
    TITLE "0:"
    INDEX 01 00:46:06
  TRACK 30 AUDIO
    TITLE "8:cjc124_2888"
    INDEX 01 00:46:19
  TRACK 31 AUDIO
    TITLE "0:"
    INDEX 01 00:49:04
  TRACK 32 AUDIO
    TITLE "7:cjc124_2889"
    INDEX 01 00:49:45
  TRACK 33 AUDIO
    TITLE "0:"
    INDEX 01 00:52:00
  TRACK 34 AUDIO
    TITLE "8:cjc124_2890"
    INDEX 01 00:52:14
  TRACK 35 AUDIO
    TITLE "0:"
    INDEX 01 00:54:56
  TRACK 36 AUDIO
    TITLE "7:cjc124_2891"
    INDEX 01 00:55:16
  TRACK 37 AUDIO
    TITLE "0:"
    INDEX 01 00:58:26
  TRACK 38 AUDIO
    TITLE "8:cjc124_2892"
    INDEX 01 00:58:40
  TRACK 39 AUDIO
    TITLE "0:"
    INDEX 01 01:01:21
  TRACK 40 AUDIO
    TITLE "7:cjc124_2893"
    INDEX 01 01:01:60
  TRACK 41 AUDIO
    TITLE "0:"
    INDEX 01 01:06:00
  TRACK 42 AUDIO
    TITLE "8:cjc124_2894"
    INDEX 01 01:06:20
  TRACK 43 AUDIO
    TITLE "0:"
    INDEX 01 01:09:59
  TRACK 44 AUDIO
    TITLE "7:cjc124_2895"
    INDEX 01 01:10:20
  TRACK 45 AUDIO
    TITLE "0:"
    INDEX 01 01:12:73
  TRACK 46 AUDIO
    TITLE "8:cjc124_2896"
    INDEX 01 01:13:14
  TRACK 47 AUDIO
    TITLE "0:"
    INDEX 01 01:16:07
  TRACK 48 AUDIO
    TITLE "7:cjc124_2897"
    INDEX 01 01:16:44
  TRACK 49 AUDIO
    TITLE "0:"
    INDEX 01 01:19:46
  TRACK 50 AUDIO
    TITLE "8:cjc124_2898"
    INDEX 01 01:19:64
  TRACK 51 AUDIO
    TITLE "0:"
    INDEX 01 01:22:25
  TRACK 52 AUDIO
    TITLE "7:cjc124_2899"
    INDEX 01 01:22:60
  TRACK 53 AUDIO
    TITLE "0:"
    INDEX 01 01:25:57
  TRACK 54 AUDIO
    TITLE "8:cjc124_2900"
    INDEX 01 01:25:74
  TRACK 55 AUDIO
    TITLE "0:"
    INDEX 01 01:28:49
  TRACK 56 AUDIO
    TITLE "7:cjc124_2901"
    INDEX 01 01:29:09
  TRACK 57 AUDIO
    TITLE "0:"
    INDEX 01 01:32:04
  TRACK 58 AUDIO
    TITLE "8:cjc124_2902"
    INDEX 01 01:32:17
  TRACK 59 AUDIO
    TITLE "0:"
    INDEX 01 01:35:67
  TRACK 60 AUDIO
    TITLE "7:cjc124_2903"
    INDEX 01 01:36:27
  TRACK 61 AUDIO
    TITLE "0:"
    INDEX 01 01:39:51
  TRACK 62 AUDIO
    TITLE "8:cjc124_2904"
    INDEX 01 01:39:63
  TRACK 63 AUDIO
    TITLE "0:"
    INDEX 01 01:42:53
  TRACK 64 AUDIO
    TITLE "7:cjc124_2905"
    INDEX 01 01:43:13
  TRACK 65 AUDIO
    TITLE "0:"
    INDEX 01 01:46:12
  TRACK 66 AUDIO
    TITLE "8:cjc124_2906"
    INDEX 01 01:46:25
  TRACK 67 AUDIO
    TITLE "0:"
    INDEX 01 01:49:20
